<svg class="svg-icon" style="width: 1em; height: 1em;vertical-align: middle;fill: currentColor;overflow: hidden;" viewBox="0 0 1024 1024" version="1.1" xmlns="http://www.w3.org/2000/svg"><path d="M938.666667 279.466667a538.026667 538.026667 0 0 0-4.266667-55.04 183.04 183.04 0 0 0-15.786667-46.08 156.16 156.16 0 0 0-30.293333-42.666667 166.826667 166.826667 0 0 0-42.666667-30.293333 182.613333 182.613333 0 0 0-46.08-15.36A435.626667 435.626667 0 0 0 744.96 85.333333H279.466667a538.026667 538.026667 0 0 0-55.04 4.266667 183.04 183.04 0 0 0-46.08 15.786667 156.16 156.16 0 0 0-42.666667 30.293333 166.826667 166.826667 0 0 0-30.293333 42.666667 182.613333 182.613333 0 0 0-15.36 46.08A435.626667 435.626667 0 0 0 85.333333 279.04V744.533333a538.026667 538.026667 0 0 0 4.266667 55.04 183.04 183.04 0 0 0 15.786667 46.08 156.16 156.16 0 0 0 30.293333 42.666667 166.826667 166.826667 0 0 0 42.666667 30.293333 182.613333 182.613333 0 0 0 46.08 15.36 435.626667 435.626667 0 0 0 54.613333 4.693334h465.493333a538.026667 538.026667 0 0 0 55.04-4.266667 183.04 183.04 0 0 0 46.08-15.786667 156.16 156.16 0 0 0 42.666667-30.293333 166.826667 166.826667 0 0 0 30.293333-42.666667 182.613333 182.613333 0 0 0 15.36-46.08 435.626667 435.626667 0 0 0 4.693334-54.613333V302.08v-22.613333zM521.813333 810.666667a303.786667 303.786667 0 0 1-146.346666-38.4l-162.133334 42.666666 42.666667-158.72a303.36 303.36 0 0 1-42.666667-152.746666 306.346667 306.346667 0 1 1 308.48 307.2z m0-560.213334A256 256 0 0 0 306.346667 640l5.973333 9.813333-25.6 93.44L384 716.8l9.386667 5.546667a256 256 0 0 0 128 35.413333 256 256 0 0 0 256-256 256 256 0 0 0-256-256z m149.333334 363.52a77.653333 77.653333 0 0 1-51.626667 36.266667 99.413333 99.413333 0 0 1-47.786667-2.986667 379.733333 379.733333 0 0 1-42.666666-16.213333 341.333333 341.333333 0 0 1-130.56-115.2 148.48 148.48 0 0 1-31.146667-78.933333 85.333333 85.333333 0 0 1 26.88-64 27.733333 27.733333 0 0 1 20.48-9.386667H426.666667c4.693333 0 11.093333 0 17.066666 13.226667s21.76 52.906667 23.893334 56.746666a14.506667 14.506667 0 0 1 0 13.226667 48.64 48.64 0 0 1-7.68 12.8c-3.84 4.693333-8.106667 10.24-11.52 13.653333s-7.68 7.68-3.413334 15.36a237.226667 237.226667 0 0 0 42.666667 52.906667 213.333333 213.333333 0 0 0 61.44 37.973333c7.68 3.84 12.373333 3.413333 16.64 0s19.2-22.186667 24.32-29.866666 10.24-6.4 17.066667-3.84 44.8 20.906667 52.48 24.746666 12.373333 5.546667 14.506666 8.96a66.56 66.56 0 0 1-2.986666 33.28z"  /></svg>